<?xml version="1.0" encoding="UTF-8" standalone="no"?>
<svg
   xmlns:dc="http://purl.org/dc/elements/1.1/"
   xmlns:cc="http://creativecommons.org/ns#"
   xmlns:rdf="http://www.w3.org/1999/02/22-rdf-syntax-ns#"
   xmlns:svg="http://www.w3.org/2000/svg"
   xmlns="http://www.w3.org/2000/svg"
   viewBox="0 0 2829.3333 2829.3333"
   height="2829.3333"
   width="2829.3333"
   xml:space="preserve"
   id="svg2"
   version="1.1"><metadata
     id="metadata8"><rdf:RDF><cc:Work
         rdf:about=""><dc:format>image/svg+xml</dc:format><dc:type
           rdf:resource="http://purl.org/dc/dcmitype/StillImage" /></cc:Work></rdf:RDF></metadata><defs
     id="defs6" /><g
     transform="matrix(1.3333333,0,0,-1.3333333,0,2829.3333)"
     id="g10"><g
       transform="scale(0.1)"
       id="g12"><path
         id="path14"
         style="fill:#4d4d4d;fill-opacity:1;fill-rule:nonzero;stroke:none"
         d="m 6374.38,2128.2 c 48.43,675.4 57.57,1188.3 7.14,1451.3 C 6238.01,4327.4 5286.05,4985 4691.48,4053.3 4454.61,3682.1 4326.45,2996.4 4274.34,2128.2 h 2100.04" /><path
         id="path16"
         style="fill:#4d4d4d;fill-opacity:1;fill-rule:nonzero;stroke:none"
         d="M 6920.04,10524.5 C 7276.41,10411.7 8751.6,9825.7 8488.83,8552.5 8225.98,7279.5 6867.54,4047.6 6309.57,3239.6 5751.41,2431.5 4647.42,2167.1 4536.91,3371.5 c -198.75,2167.7 341.92,6817.2 2383.13,7153" /><g
         transform="scale(1.03919)"
         id="g18"><path
           id="path20"
           style="fill:#4d4d4d;fill-opacity:1;fill-rule:nonzero;stroke:none"
           d="m 16300,2047.94 c -50.2,835.46 -173.6,1495.3 -401.5,1852.5 -572.2,896.56 -1488.1,263.77 -1626.3,-455.93 -48.6,-253.08 -39.9,-746.64 7,-1396.57 H 16300" /></g><g
         transform="scale(1.03527)"
         id="g22"><path
           id="path24"
           style="fill:#4d4d4d;fill-opacity:1;fill-rule:nonzero;stroke:none"
           d="M 13806.3,10165.9 C 13462,10057 12036.8,9490.95 12290.8,8261.13 c 254,-1229.63 1566,-4351.42 2105.1,-5131.9 538.9,-780.57 1605.4,-1035.96 1712.1,127.41 192,2093.85 -330.2,6584.95 -2301.7,6909.26" /></g><path
         id="path26"
         style="fill:#4d4d4d;fill-opacity:1;fill-rule:nonzero;stroke:none"
         d="m 14632.2,2128.2 c 233.4,3399.3 399.3,7941.6 -336.7,8396.3 -925.1,571.8 -2557.3,795.9 -3766.1,795.9 -1208.89,0 -2684.52,-224.1 -3609.36,-795.9 -735.98,-454.7 -570.08,-4997 -336.76,-8396.3 h 8048.92" /><path
         id="path28"
         style="fill:#4d4d4d;fill-opacity:1;fill-rule:nonzero;stroke:none"
         d="m 8772.63,10137 c 138.64,-224.2 325.81,-423.5 403.3,-680.5 72.73,-241.2 -66.62,-452.5 -161.2,-663.7 -51.84,-115.8 -100.83,-233.5 -125.06,-358.5 -27.92,-144.1 -18.75,-287.4 11.7,-430.1 28.19,-132.3 76.13,-261.1 93.06,-395.7 15.3,-121.6 -0.91,-236.9 -53.88,-345.3 -64.34,-131.5 -156.04,-247.6 -220.92,-379 -74.33,-150.6 -119.23,-321.1 -116.27,-489.6 2.58,-147.4 48.82,-286.3 105.91,-420.4 28.93,-68 60.53,-134.8 91.69,-201.7 38.34,-82.5 69.47,-173.2 136.9,-235.9 59.21,-55 149.66,-15.2 153.98,63.8 4.33,79.3 -28.46,143.9 -58.82,215.5 -26.21,61.7 -56.3,121.8 -84.54,182.6 -45.7,98.4 -85.92,196.3 -107.8,306.6 -19.49,98.3 -6.4,221.3 24.22,328.6 35.65,124.9 100.79,233.5 169.32,342.6 66.15,105.5 128.91,212.9 163.81,333.3 40.67,140.2 27.86,287.4 -0.6,428.5 -27.63,137 -74.23,269.2 -97.64,407.2 -20.52,121 -3.53,243.1 31.82,359.4 42.5,139.7 110.12,270.6 157.77,408.6 48.7,141.2 79.84,293 61.26,442.5 -20.76,167.3 -107.75,319.1 -204.66,454 -96.04,133.6 -207.02,250.9 -327.04,362.9 -24,22.4 -64.43,-6.4 -46.31,-35.7 v 0" /><path
         id="path30"
         style="fill:#4d4d4d;fill-opacity:1;fill-rule:nonzero;stroke:none"
         d="m 12577.2,10172.7 c -193.3,-180.2 -378.7,-385.2 -481.4,-632.2 -100.5,-241.5 -43,-487 45.3,-722.2 43,-114.7 97.4,-223.8 131.7,-341.8 34.7,-119.3 39.8,-242 17.6,-364.2 -24.9,-137.5 -72.3,-269.9 -98.3,-407.3 -26.7,-141.4 -29.2,-284.8 14.3,-423.2 44.9,-143 133,-265.8 209.5,-392.8 80.5,-133.5 140.2,-283 148.4,-438.7 6.8,-128.8 -30.4,-255.2 -81.2,-373.1 -29.4,-68.4 -62,-135.3 -93.6,-202.6 -40.3,-86 -90.5,-177.6 -85.2,-274.2 4.3,-79 94.7,-118.8 153.9,-63.8 54.2,50.4 78.2,112.7 110.1,178.1 29.2,59.7 56.4,120.6 84,181.1 49.5,108.2 96.5,218.7 121.1,335.6 56.7,269.5 -23.6,540.1 -162.3,771.7 -58.4,97.6 -130.9,194.3 -173.4,298.1 -47.9,117.1 -49.9,237.7 -27,361 25.5,137.4 72.7,269.8 96.7,407.6 24.7,141.3 20.4,282.6 -13.6,422 -35.5,145.6 -101.8,286.3 -169.3,419.5 -61.3,121 -119.9,248.7 -124.9,386.4 -5.6,156.9 69.8,304.7 149.4,435.2 84.9,139.1 188.7,265.5 274.5,404.1 18.1,29.3 -22.3,58.1 -46.3,35.7 v 0" /><path
         id="path32"
         style="fill:#4d4d4d;fill-opacity:1;fill-rule:nonzero;stroke:none"
         d="m 9209.65,5600.4 c 0,-115 -93.05,-208.1 -208.01,-208.1 -115,0 -208.24,93.1 -208.24,208.1 0,115 93.24,208.2 208.24,208.2 114.96,0 208.01,-93.2 208.01,-208.2" /><path
         id="path34"
         style="fill:#4d4d4d;fill-opacity:1;fill-rule:nonzero;stroke:none"
         d="m 12607.5,5600.4 c 0,-115 -93,-208.1 -208,-208.1 -115,0 -208.2,93.1 -208.2,208.1 0,115 93.2,208.2 208.2,208.2 115,0 208,-93.2 208,-208.2" /><path
         id="path36"
         style="fill:#4d4d4d;fill-opacity:1;fill-rule:nonzero;stroke:none"
         d="m 13886.1,10891.9 c -213.1,230.6 -368.1,342.3 -627.5,602 -230.9,288.4 -173.1,605.6 -548.1,807.5 -375,173.3 -1644.2,144.3 -2019,57.9 -375.1,86.4 -1644.08,115.4 -2019.12,-57.9 -374.96,-201.9 -317.22,-519.1 -548.12,-807.5 -259.46,-259.7 -414.38,-371.4 -627.42,-602 -479.11,-519.4 569.61,-523.1 887.11,-638.4 634.53,-259.6 1182.46,-548 1672.85,-1009.4 288.6,-259.6 461.7,-519.3 634.7,-865.4 173,346.1 346.2,605.8 634.5,865.4 490.4,461.4 1038.4,749.8 1672.9,1009.4 317.3,115.3 1366.3,119 887.2,638.4" /><path
         id="path38"
         style="fill:#f89f70;fill-opacity:1;fill-rule:nonzero;stroke:none"
         d="M 9643.44,13496.8 9474.8,11271.5 c 0,-211.1 114.58,-868.2 1018.6,-868.2 904.1,0 1018.6,657.1 1018.6,868.2 l -168.6,2225.3 H 9643.44" /><path
         id="path40"
         style="fill:#d68960;fill-opacity:1;fill-rule:nonzero;stroke:none"
         d="m 10281.5,12202.4 c 256.4,-5.8 537.9,-4.4 757.3,-157.6 300.9,-210.1 429.2,-555.6 398,-916.2 -8.3,-97.5 -26.1,-201 -52.5,-306.2 104.8,173.2 127.7,355.2 127.7,449.1 l -168.6,2225.3 H 9643.44 l -84.06,-1107.7 c 226.13,-108.1 453.62,-180.8 722.12,-186.7" /><g
         transform="scale(1.12216)"
         id="g42"><path
           id="path44"
           style="fill:#f89f70;fill-opacity:1;fill-rule:nonzero;stroke:none"
           d="m 7528.62,13212.8 c 134.16,-901.3 545.62,-2074.3 1717.48,-2074.3 1171.9,0 1535.8,654.4 1697.2,1980.2 63.7,522.7 254.3,1893.3 -113.4,2316.3 -583.3,670.4 -1659.46,865 -2470.33,546.3 -321.15,-126.4 -627.17,-346.2 -777.68,-665.5 -75.82,-160.9 -98.32,-338.6 -95.45,-515 2.08,-138.4 -14.87,-268.3 -19.43,-405.5 -13.13,-391.4 -72.55,-281.1 61.61,-1182.5" /></g><g
         transform="scale(1.18037)"
         id="g46"><path
           id="path48"
           style="fill:#303030;fill-opacity:1;fill-rule:nonzero;stroke:none"
           d="m 9866.35,15744.5 c -267.71,35.2 -381.32,268.2 -630.82,362.2 -512.81,193.3 -1123.17,-22.6 -1550.44,-319.2 -707.74,-491.3 -1293.56,-1422.7 -931.49,-2562.9 172.42,-542.9 293.01,-433.8 470.3,-203.8 189.29,245.9 318.29,844.9 434.97,1120.4 164.55,388.7 616.7,328.7 970.75,349.3 368.69,21.3 646.66,111.3 880.31,304.9 -51.76,-346.7 326.94,-1145.2 699.67,-873.8 16.8,-329.1 98.6,-663.4 182.6,-983 153.2,-24.3 287.7,143.1 433.8,81.8 170.9,1006.9 401.9,2544.8 -959.65,2724.1" /></g><path
         id="path50"
         style="fill:#f89f70;fill-opacity:1;fill-rule:nonzero;stroke:none"
         d="m 8614.34,15023.6 c -39.85,103.4 -293.83,650.7 -642.86,327.7 -348.98,-322.9 82.27,-1117.6 376.88,-1115.9 294.65,1.2 339.65,273 347.11,402 6.48,109.3 -75.59,372.1 -81.13,386.2" /><path
         id="path52"
         style="fill:#f89f70;fill-opacity:1;fill-rule:nonzero;stroke:none"
         d="m 12170,15023.6 c 40,103.4 294,650.7 642.9,327.7 348.8,-322.9 -82.3,-1117.6 -376.9,-1115.9 -294.5,1.2 -339.6,273 -347.1,402 -6.5,109.3 75.7,372.1 81.1,386.2" /><path
         id="path54"
         style="fill:none;stroke:#cb825b;stroke-width:79.08660126;stroke-linecap:round;stroke-linejoin:round;stroke-miterlimit:10;stroke-dasharray:none;stroke-opacity:1"
         d="m 10262.7,14940.5 c 47.3,-163.9 62,-341.7 69.8,-511.7 7.2,-151.3 -25.9,-266.6 -76.3,-406.5 -41.2,-114.7 -26.7,-214.1 100.8,-256 121.6,-40 232.9,28 385.9,34.6" /><path
         id="path56"
         style="fill:#cb825b;fill-opacity:1;fill-rule:nonzero;stroke:none"
         d="m 9834.65,13499.8 c 24.65,-14.4 48.67,-28.9 72.11,-43.7 l 34.84,-22.2 c 11.92,-6.9 25,-11.9 37.35,-17.8 l 73.55,-35.4 c 26.2,-8 51.6,-17.1 77.1,-25.6 103.3,-29.3 209.9,-46.5 317.5,-40.8 107.5,3.4 214.9,21.8 321,48.7 106,28 211,63.4 315,107 -87.4,-72.1 -189.5,-125.5 -296.3,-165.9 -107,-40.3 -221.3,-63.8 -337.3,-68.8 -116.2,-4.6 -233.8,17.8 -340.9,62 -26.4,12.4 -52.9,24.1 -78.6,37 l -71.41,48.9 c -11.48,8.7 -23.59,16.2 -34.33,25.6 l -30.78,30 c -20.2,20.1 -39.85,40.5 -58.83,61" /><path
         id="path58"
         style="fill:#cb825b;fill-opacity:1;fill-rule:nonzero;stroke:none"
         d="m 10327.6,13018.3 c 3.4,28.4 20.7,54 47.1,69.6 26.2,16.5 59.1,19.9 86.6,15.5 28,-4.4 52.5,-15.1 73.5,-29.6 21.2,-14.1 39.2,-31.5 55.1,-55.5 -28.2,-6.5 -53.7,-4.8 -76.9,-2.2 -23.5,2.1 -44.5,6.3 -63.5,9.1 -19.3,3.1 -35.4,4.9 -54,4.9 -18.5,-0.5 -39.7,-4.9 -67.9,-11.8" /><path
         id="path60"
         style="fill:#141b27;fill-opacity:1;fill-rule:nonzero;stroke:none"
         d="m 9435.39,14579 c 210.31,-92.8 280.27,217.9 104.45,309.3 -212.57,110.6 -287.85,-228.3 -104.45,-309.3" /><path
         id="path62"
         style="fill:#303030;fill-opacity:1;fill-rule:nonzero;stroke:none"
         d="m 9414.38,15608.5 c -157.86,-19.8 -468.68,-66.8 -539.81,-211 -75.47,-153.1 271.91,-73.1 345.82,-60.7 211.41,35.4 365.16,-27.7 570.27,-46.5 81.8,-7.2 214.74,-7.8 261.54,62.7 65.3,98 -58.96,188.9 -153.45,219.3 -155.39,49.6 -320.51,56.9 -484.37,36.2" /><path
         id="path64"
         style="fill:#141b27;fill-opacity:1;fill-rule:nonzero;stroke:none"
         d="m 11380.2,14579 c -210.4,-92.8 -280.4,217.9 -104.7,309.3 212.8,110.6 287.9,-228.3 104.7,-309.3" /><path
         id="path66"
         style="fill:#303030;fill-opacity:1;fill-rule:nonzero;stroke:none"
         d="m 11401,15608.5 c 157.9,-19.8 468.7,-66.8 539.7,-211 75.9,-153.1 -271.6,-73.1 -345.8,-60.7 -211.2,35.4 -364.9,-27.7 -570.1,-46.5 -81.7,-7.2 -214.8,-7.8 -261.6,62.7 -65.2,98 58.8,188.9 153.4,219.3 155.5,49.6 320.7,56.9 484.4,36.2" /><path
         id="path68"
         style="fill:#cb825b;fill-opacity:1;fill-rule:nonzero;stroke:none"
         d="m 11563.4,14314.7 c -63.5,67.6 -138.8,115.6 -222.7,154.5 -37.6,17.4 -76.4,31.9 -115.3,46 -35.1,12.7 -74.1,32.4 -111.6,21.5 -12.1,-3.5 -14.5,-17.4 -7,-26.4 22.2,-26.4 58.9,-31.7 90.9,-39.9 38.2,-9.8 76.1,-20.5 113.5,-32.8 89.4,-29.4 170.1,-77 250,-125.8 1.8,-1.2 3.6,1.4 2.2,2.9 v 0" /><path
         id="path70"
         style="fill:#cb825b;fill-opacity:1;fill-rule:nonzero;stroke:none"
         d="m 9213.4,14311.8 c 80.27,49 160.72,95.1 249.96,125.8 37.22,12.8 75.37,22.9 113.44,32.8 32.01,8.3 68.62,13.4 90.79,39.9 7.48,9 5.16,22.9 -6.96,26.4 -33.44,9.7 -65.94,-5.4 -97.54,-16.5 -39.04,-13.8 -77.58,-28.6 -115.61,-44.9 -89.08,-38.2 -169.92,-89.9 -236.33,-160.6 -1.42,-1.5 0.4,-4.1 2.25,-2.9 v 0" /><g
         transform="scale(1.0081)"
         id="g72"><path
           id="path74"
           style="fill:#9c9c9c;fill-opacity:1;fill-rule:nonzero;stroke:none"
           d="m 16097.8,2111.09 c 202.2,364.55 123.7,1155.44 -416.3,1280.92 -475.5,114.27 -9844.93,114.27 -10320.46,0 -539.99,-125.48 -618.53,-916.37 -416.46,-1280.92 H 16097.8" /></g><path
         id="path76"
         style="fill:#9c9c9c;fill-opacity:1;fill-rule:nonzero;stroke:none"
         d="m 15543.8,9790.5 c -448.1,535.3 -9277.16,535.3 -9725.21,0 -511.71,-592 -583.82,-4338.7 -389.72,-6036.9 v 0 c 40,-347.8 90.9,-610 151.48,-741.2 416.1,-1011 9785.45,-1011 10201.75,0 60.8,131.2 111.3,393.4 151.1,741.2 h 0.2 c 194.4,1698.2 122.1,5444.9 -389.6,6036.9" /><path
         id="path78"
         style="fill:#ffffff;fill-opacity:1;fill-rule:nonzero;stroke:none"
         d="M 9588.09,7059.3 C 8115.51,5196.6 11265.4,3594.8 12073.1,5959.5 c 549.8,1608 -1624.7,2187.3 -2485.01,1099.8" /><path
         id="path80"
         style="fill:#9c9c9c;fill-opacity:1;fill-rule:nonzero;stroke:none"
         d="m 15543.8,9790.5 c -140.9,168.4 -1110.6,283.7 -2387.5,346.1 559.7,-563.7 941.4,-1341.3 1194.1,-2080.8 322.5,-944.2 423.4,-1954 293.8,-2943.2 -79.4,-608.5 -317.7,-1346.2 -867.8,-1670.9 C 12006.6,2398 7704.3,2639.1 6833.83,2742 c -442.23,52 -878.36,183.8 -1290.2,370.3 11.92,-38.6 24.14,-72.5 36.72,-99.9 416.1,-1011 9785.45,-1011 10201.75,0 60.8,131.2 111.3,393.4 151.1,741.2 h 0.2 c 194.4,1698.2 122.1,5444.9 -389.6,6036.9" /></g></g></svg>